<svg id="visual" viewBox="0 0 1280 832" width="1280" height="832" xmlns="http://www.w3.org/2000/svg" xmlns:xlink="http://www.w3.org/1999/xlink" version="1.1"><rect x="0" y="0" width="1280" height="832" fill="#001220"></rect><defs><linearGradient id="grad1_0" x1="35%" y1="0%" x2="100%" y2="100%"><stop offset="19.230769230769226%" stop-color="#06192c" stop-opacity="1"></stop><stop offset="80.76923076923077%" stop-color="#06192c" stop-opacity="1"></stop></linearGradient></defs><defs><linearGradient id="grad1_1" x1="35%" y1="0%" x2="100%" y2="100%"><stop offset="19.230769230769226%" stop-color="#06192c" stop-opacity="1"></stop><stop offset="80.76923076923077%" stop-color="#05182a" stop-opacity="1"></stop></linearGradient></defs><defs><linearGradient id="grad1_2" x1="35%" y1="0%" x2="100%" y2="100%"><stop offset="19.230769230769226%" stop-color="#041728" stop-opacity="1"></stop><stop offset="80.76923076923077%" stop-color="#05182a" stop-opacity="1"></stop></linearGradient></defs><defs><linearGradient id="grad1_3" x1="35%" y1="0%" x2="100%" y2="100%"><stop offset="19.230769230769226%" stop-color="#041728" stop-opacity="1"></stop><stop offset="80.76923076923077%" stop-color="#031626" stop-opacity="1"></stop></linearGradient></defs><defs><linearGradient id="grad1_4" x1="35%" y1="0%" x2="100%" y2="100%"><stop offset="19.230769230769226%" stop-color="#021524" stop-opacity="1"></stop><stop offset="80.76923076923077%" stop-color="#031626" stop-opacity="1"></stop></linearGradient></defs><defs><linearGradient id="grad1_5" x1="35%" y1="0%" x2="100%" y2="100%"><stop offset="19.230769230769226%" stop-color="#021524" stop-opacity="1"></stop><stop offset="80.76923076923077%" stop-color="#011322" stop-opacity="1"></stop></linearGradient></defs><defs><linearGradient id="grad1_6" x1="35%" y1="0%" x2="100%" y2="100%"><stop offset="19.230769230769226%" stop-color="#001220" stop-opacity="1"></stop><stop offset="80.76923076923077%" stop-color="#011322" stop-opacity="1"></stop></linearGradient></defs><defs><linearGradient id="grad2_0" x1="0%" y1="0%" x2="65%" y2="100%"><stop offset="19.230769230769226%" stop-color="#06192c" stop-opacity="1"></stop><stop offset="80.76923076923077%" stop-color="#06192c" stop-opacity="1"></stop></linearGradient></defs><defs><linearGradient id="grad2_1" x1="0%" y1="0%" x2="65%" y2="100%"><stop offset="19.230769230769226%" stop-color="#05182a" stop-opacity="1"></stop><stop offset="80.76923076923077%" stop-color="#06192c" stop-opacity="1"></stop></linearGradient></defs><defs><linearGradient id="grad2_2" x1="0%" y1="0%" x2="65%" y2="100%"><stop offset="19.230769230769226%" stop-color="#05182a" stop-opacity="1"></stop><stop offset="80.76923076923077%" stop-color="#041728" stop-opacity="1"></stop></linearGradient></defs><defs><linearGradient id="grad2_3" x1="0%" y1="0%" x2="65%" y2="100%"><stop offset="19.230769230769226%" stop-color="#031626" stop-opacity="1"></stop><stop offset="80.76923076923077%" stop-color="#041728" stop-opacity="1"></stop></linearGradient></defs><defs><linearGradient id="grad2_4" x1="0%" y1="0%" x2="65%" y2="100%"><stop offset="19.230769230769226%" stop-color="#031626" stop-opacity="1"></stop><stop offset="80.76923076923077%" stop-color="#021524" stop-opacity="1"></stop></linearGradient></defs><defs><linearGradient id="grad2_5" x1="0%" y1="0%" x2="65%" y2="100%"><stop offset="19.230769230769226%" stop-color="#011322" stop-opacity="1"></stop><stop offset="80.76923076923077%" stop-color="#021524" stop-opacity="1"></stop></linearGradient></defs><defs><linearGradient id="grad2_6" x1="0%" y1="0%" x2="65%" y2="100%"><stop offset="19.230769230769226%" stop-color="#011322" stop-opacity="1"></stop><stop offset="80.76923076923077%" stop-color="#001220" stop-opacity="1"></stop></linearGradient></defs><g transform="translate(1280, 0)"><path d="M0 763.3C-92.1 708.7 -184.1 654.1 -245.7 593.1C-307.3 532.2 -338.4 464.9 -421.4 421.4C-504.5 378 -639.6 358.4 -705.2 292.1C-770.9 225.8 -767.1 112.9 -763.3 0L0 0Z" fill="#011321"></path><path d="M0 654.3C-78.9 607.5 -157.8 560.6 -210.6 508.4C-263.4 456.2 -290 398.5 -361.2 361.2C-432.4 324 -548.2 307.2 -604.5 250.4C-660.7 193.6 -657.5 96.8 -654.3 0L0 0Z" fill="#021423"></path><path d="M0 545.2C-65.8 506.2 -131.5 467.2 -175.5 423.7C-219.5 380.1 -241.7 332.1 -301 301C-360.4 270 -456.8 256 -503.7 208.6C-550.6 161.3 -547.9 80.7 -545.2 0L0 0Z" fill="#031525"></path><path d="M0 436.2C-52.6 405 -105.2 373.8 -140.4 338.9C-175.6 304.1 -193.3 265.6 -240.8 240.8C-288.3 216 -365.5 204.8 -403 166.9C-440.5 129.1 -438.3 64.5 -436.2 0L0 0Z" fill="#041627"></path><path d="M0 327.1C-39.5 303.7 -78.9 280.3 -105.3 254.2C-131.7 228.1 -145 199.2 -180.6 180.6C-216.2 162 -274.1 153.6 -302.2 125.2C-330.4 96.8 -328.8 48.4 -327.1 0L0 0Z" fill="#051729"></path><path d="M0 218.1C-26.3 202.5 -52.6 186.9 -70.2 169.5C-87.8 152.1 -96.7 132.8 -120.4 120.4C-144.1 108 -182.7 102.4 -201.5 83.5C-220.2 64.5 -219.2 32.3 -218.1 0L0 0Z" fill="#06182b"></path><path d="M0 109C-13.2 101.2 -26.3 93.4 -35.1 84.7C-43.9 76 -48.3 66.4 -60.2 60.2C-72.1 54 -91.4 51.2 -100.7 41.7C-110.1 32.3 -109.6 16.1 -109 0L0 0Z" fill="#06192c"></path></g><g transform="translate(0, 832)"><path d="M0 -763.3C92.8 -718.7 185.5 -674 257.9 -622.7C330.3 -571.3 382.4 -513.3 462.4 -462.4C542.5 -411.6 650.4 -368 705.2 -292.1C760 -216.2 761.7 -108.1 763.3 0L0 0Z" fill="#011321"></path><path d="M0 -654.3C79.5 -616 159 -577.8 221.1 -533.7C283.2 -489.7 327.8 -440 396.4 -396.4C465 -352.8 557.5 -315.4 604.5 -250.4C651.4 -185.3 652.9 -92.7 654.3 0L0 0Z" fill="#021423"></path><path d="M0 -545.2C66.3 -513.3 132.5 -481.5 184.2 -444.8C236 -408.1 273.2 -366.6 330.3 -330.3C387.5 -294 464.6 -262.8 503.7 -208.6C542.9 -154.5 544 -77.2 545.2 0L0 0Z" fill="#031525"></path><path d="M0 -436.2C53 -410.7 106 -385.2 147.4 -355.8C188.8 -326.5 218.5 -293.3 264.3 -264.3C310 -235.2 371.7 -210.3 403 -166.9C434.3 -123.6 435.2 -61.8 436.2 0L0 0Z" fill="#041627"></path><path d="M0 -327.1C39.8 -308 79.5 -288.9 110.5 -266.9C141.6 -244.9 163.9 -220 198.2 -198.2C232.5 -176.4 278.7 -157.7 302.2 -125.2C325.7 -92.7 326.4 -46.3 327.1 0L0 0Z" fill="#051729"></path><path d="M0 -218.1C26.5 -205.3 53 -192.6 73.7 -177.9C94.4 -163.2 109.3 -146.7 132.1 -132.1C155 -117.6 185.8 -105.1 201.5 -83.5C217.1 -61.8 217.6 -30.9 218.1 0L0 0Z" fill="#06182b"></path><path d="M0 -109C13.3 -102.7 26.5 -96.3 36.8 -89C47.2 -81.6 54.6 -73.3 66.1 -66.1C77.5 -58.8 92.9 -52.6 100.7 -41.7C108.6 -30.9 108.8 -15.4 109 0L0 0Z" fill="#06192c"></path></g></svg>